# xmcd
#
# Track frame offsets:
#	183
#	13963
#	27883
#	43023
#	58908
#	83098
#	98958
#	133833
#	163728
#	197583
#	215358
#	227325
#	247800
#	264443
#	303203
#
# Disc length: 4432
#
# Revision: 1
# Processed by: cddbd v1.5.1PL0 Copyright (c) Steve Scherf et al.
# Submitted via: CDex 1.51
# Normalized: r0:TRMNUM
#
DISCID=c3114e0f
DTITLE=V 64 Gil Evans - Las Vegas Tango
DYEAR=1991
DGENRE=Jazz
TTITLE0=Donna Lee
TTITLE1=Anthology
TTITLE2=Yardbird Suite
TTITLE3=Miles Ahead
TTITLE4=Blues For Pablo 
TTITLE5=El Toreador
TTITLE6=Concorde
TTITLE7=Las Vegas Tango
TTITLE8=Time Of The Barracudas
TTITLE9=Proclamation
TTITLE10=Nothing Like You
TTITLE11=Summertime
TTITLE12=By Myself
TTITLE13=Zee Zee
TTITLE14=Goodbye Porkpie Hat
EXTD=YEAR: 1991
EXTT0=
EXTT1=
EXTT2=
EXTT3=
EXTT4=
EXTT5=
EXTT6=
EXTT7=
EXTT8=
EXTT9=
EXTT10=
EXTT11=
EXTT12=
EXTT13=
EXTT14=
PLAYORDER=
